<svg xmlns="http://www.w3.org/2000/svg" width="900" height="540" viewBox="0 0 900 540">
  <defs>
    <linearGradient id="bg" x1="0" y1="0" x2="1" y2="1">
      <stop offset="0" stop-color="#F7FAFC"/>
      <stop offset="1" stop-color="#EDF6FB"/>
    </linearGradient>
  </defs>

  <rect width="900" height="540" rx="36" fill="url(#bg)"/>
  <rect x="70" y="70" width="760" height="400" rx="26" fill="#FFFFFF" stroke="#E6EEF5" stroke-width="4"/>

  <!-- header pills -->
  <rect x="110" y="110" width="180" height="34" rx="17" fill="#1D7DB6" opacity="0.12"/>
  <rect x="305" y="110" width="130" height="34" rx="17" fill="#32B29A" opacity="0.12"/>
  <rect x="450" y="110" width="100" height="34" rx="17" fill="#0F172A" opacity="0.06"/>

  <!-- tooth icon -->
  <g transform="translate(140 190)">
    <path d="M74 0c26 0 46 20 46 46 0 25-12 44-20 56-7 10-8 44-22 44S62 112 55 102c-8-12-20-31-20-56C35 20 48 0 74 0Z" fill="#32B29A" opacity="0.18"/>
    <path d="M74 6c22 0 40 18 40 40 0 21-10 37-18 49-6 9-7 41-22 41S58 104 52 95c-8-12-18-28-18-49C34 24 52 6 74 6Z" fill="none" stroke="#32B29A" stroke-width="6"/>
    <path d="M60 52c8 10 20 10 28 0" fill="none" stroke="#1D7DB6" stroke-width="6" stroke-linecap="round"/>
  </g>

  <!-- right content cards -->
  <rect x="360" y="190" width="430" height="90" rx="20" fill="#F7FAFC" stroke="#E6EEF5" stroke-width="3"/>
  <rect x="360" y="300" width="430" height="90" rx="20" fill="#F7FAFC" stroke="#E6EEF5" stroke-width="3"/>

  <rect x="390" y="220" width="250" height="14" rx="7" fill="#0F172A" opacity="0.18"/>
  <rect x="390" y="246" width="340" height="12" rx="6" fill="#0F172A" opacity="0.10"/>

  <rect x="390" y="330" width="210" height="14" rx="7" fill="#0F172A" opacity="0.18"/>
  <rect x="390" y="356" width="320" height="12" rx="6" fill="#0F172A" opacity="0.10"/>

  <!-- footer CTA -->
  <rect x="110" y="430" width="170" height="32" rx="16" fill="#1D7DB6" opacity="0.18"/>
  <rect x="290" y="430" width="210" height="32" rx="16" fill="#32B29A" opacity="0.14"/>
</svg>
