<svg xmlns="http://www.w3.org/2000/svg" width="900" height="540" viewBox="0 0 900 540">
  <defs>
    <linearGradient id="bg" x1="0" y1="0" x2="1" y2="1">
      <stop offset="0" stop-color="#F7FAFC"/>
      <stop offset="1" stop-color="#F1FBF8"/>
    </linearGradient>
  </defs>
  <rect width="900" height="540" rx="36" fill="url(#bg)"/>
  <rect x="70" y="70" width="760" height="400" rx="26" fill="#FFFFFF" stroke="#E6EEF5" stroke-width="4"/>

  <!-- header pills -->
  <rect x="110" y="110" width="160" height="34" rx="17" fill="#32B29A" opacity="0.14"/>
  <rect x="285" y="110" width="150" height="34" rx="17" fill="#1D7DB6" opacity="0.10"/>
  <rect x="450" y="110" width="120" height="34" rx="17" fill="#0F172A" opacity="0.06"/>

  <!-- sparkle + drop icon -->
  <g transform="translate(150 195)">
    <path d="M60 0c18 28 28 44 28 60a28 28 0 1 1-56 0c0-16 10-32 28-60Z" fill="#1D7DB6" opacity="0.14"/>
    <path d="M60 10c14 22 22 35 22 50a22 22 0 1 1-44 0c0-15 8-28 22-50Z" fill="none" stroke="#1D7DB6" stroke-width="6"/>
    <path d="M140 40l10 26 26 10-26 10-10 26-10-26-26-10 26-10 10-26Z" fill="#32B29A" opacity="0.25"/>
    <path d="M140 46l7 18 18 7-18 7-7 18-7-18-18-7 18-7 7-18Z" fill="none" stroke="#32B29A" stroke-width="4"/>
  </g>

  <!-- content blocks -->
  <rect x="120" y="270" width="520" height="26" rx="13" fill="#0F172A" opacity="0.08"/>
  <rect x="120" y="308" width="600" height="18" rx="9" fill="#0F172A" opacity="0.06"/>
  <rect x="120" y="338" width="560" height="18" rx="9" fill="#0F172A" opacity="0.06"/>

  <rect x="120" y="385" width="220" height="52" rx="18" fill="#32B29A" opacity="0.16"/>
  <rect x="350" y="385" width="220" height="52" rx="18" fill="#1D7DB6" opacity="0.10"/>
</svg>
