<svg xmlns="http://www.w3.org/2000/svg" viewBox="0 0 32 32" fill="none"><path d="M16 3C9.373 3 4 8.149 4 14.5c0 2.43.82 4.688 2.227 6.54L5 29l7.2-1.86c1.16.4 2.4.61 3.8.61 6.627 0 12-5.149 12-11.5S22.627 3 16 3Z" stroke="currentColor" stroke-width="2" stroke-linejoin="round"/><path d="M12.6 11.3c.3-.7.6-.7 1-.7h.8c.2 0 .5.1.7.5l1.1 2.6c.1.3.1.6-.1.8l-.7.8c-.2.2-.2.5 0 .7.7 1.2 1.6 2.1 2.9 2.8.2.1.5.1.7-.1l.9-.7c.2-.2.6-.2.8-.1l2.6 1.1c.4.2.5.5.5.7v.8c0 .4 0 .7-.7 1-.7.3-2.1.7-4.4-.2-2.3-.9-4.7-3.2-5.7-5.4-1-2.2-.6-3.7-.2-4.4Z" fill="currentColor"/></svg>